<svg width="512" height="512" viewBox="0 0 512 512" fill="none" xmlns="http://www.w3.org/2000/svg">
<path d="M316.394 185.238V66.4109C316.394 63.0161 317.742 59.7604 320.143 57.3599C322.543 54.9594 325.799 53.6109 329.194 53.6109C332.589 53.6109 335.844 54.9594 338.245 57.3599C340.645 59.7604 341.994 63.0161 341.994 66.4109V172.438H447.999C451.394 172.438 454.65 173.786 457.05 176.187C459.451 178.587 460.799 181.843 460.799 185.238C460.799 188.632 459.451 191.888 457.05 194.289C454.65 196.689 451.394 198.038 447.999 198.038H329.194C325.799 198.038 322.543 196.689 320.143 194.289C317.742 191.888 316.394 188.632 316.394 185.238ZM185.237 51.2002C181.842 51.2002 178.586 52.5488 176.186 54.9492C173.785 57.3497 172.437 60.6054 172.437 64.0002V170.027H66.4099C63.0151 170.027 59.7594 171.375 57.3589 173.776C54.9585 176.176 53.6099 179.432 53.6099 182.827C53.6099 186.222 54.9585 189.477 57.3589 191.878C59.7594 194.278 63.0151 195.627 66.4099 195.627H185.237C188.631 195.627 191.887 194.278 194.288 191.878C196.688 189.477 198.037 186.222 198.037 182.827V64.0002C198.037 60.6054 196.688 57.3497 194.288 54.9492C191.887 52.5488 188.631 51.2002 185.237 51.2002ZM182.805 313.984H63.9992C60.6044 313.984 57.3487 315.333 54.9483 317.733C52.5478 320.134 51.1992 323.389 51.1992 326.784C51.1992 330.179 52.5478 333.435 54.9483 335.835C57.3487 338.236 60.6044 339.584 63.9992 339.584H170.005V445.611C170.005 449.006 171.353 452.261 173.754 454.662C176.154 457.062 179.41 458.411 182.805 458.411C186.199 458.411 189.455 457.062 191.856 454.662C194.256 452.261 195.605 449.006 195.605 445.611V326.763C195.599 323.372 194.248 320.122 191.848 317.726C189.448 315.33 186.196 313.984 182.805 313.984ZM445.567 316.395H326.762C323.367 316.395 320.111 317.743 317.711 320.144C315.31 322.544 313.962 325.8 313.962 329.195V448C313.962 449.681 314.293 451.346 314.936 452.899C315.58 454.452 316.522 455.863 317.711 457.051C318.899 458.24 320.311 459.183 321.864 459.826C323.417 460.469 325.081 460.8 326.762 460.8C328.443 460.8 330.107 460.469 331.66 459.826C333.213 459.183 334.624 458.24 335.813 457.051C337.001 455.863 337.944 454.452 338.588 452.899C339.231 451.346 339.562 449.681 339.562 448V341.974H445.589C448.983 341.974 452.239 340.625 454.64 338.224C457.04 335.824 458.389 332.568 458.389 329.174C458.389 325.779 457.04 322.523 454.64 320.123C452.239 317.722 448.983 316.374 445.589 316.374L445.567 316.395Z" fill="#D32B29"/>
</svg>
