<svg width="512" height="512" viewBox="0 0 512 512" fill="none" xmlns="http://www.w3.org/2000/svg">
<path d="M422.4 480H318.4C314.157 480 310.087 478.314 307.086 475.314C304.086 472.313 302.4 468.243 302.4 464C302.4 459.757 304.086 455.687 307.086 452.686C310.087 449.686 314.157 448 318.4 448H422.4C429.19 448 435.701 445.303 440.502 440.502C445.303 435.701 448 429.19 448 422.4V318.4C448 314.157 449.686 310.087 452.686 307.086C455.687 304.086 459.757 302.4 464 302.4C468.243 302.4 472.313 304.086 475.314 307.086C478.314 310.087 480 314.157 480 318.4V422.4C479.958 437.663 473.876 452.29 463.083 463.083C452.29 473.876 437.663 479.958 422.4 480ZM209.6 464C209.6 459.757 207.914 455.687 204.914 452.686C201.913 449.686 197.843 448 193.6 448H89.6C82.8105 448 76.299 445.303 71.4981 440.502C66.6971 435.701 64 429.19 64 422.4V318.4C64 314.157 62.3143 310.087 59.3137 307.086C56.3131 304.086 52.2435 302.4 48 302.4C43.7565 302.4 39.6869 304.086 36.6863 307.086C33.6857 310.087 32 314.157 32 318.4V422.4C32.0422 437.663 38.1243 452.29 48.9173 463.083C59.7102 473.876 74.3365 479.958 89.6 480H193.6C197.843 480 201.913 478.314 204.914 475.314C207.914 472.313 209.6 468.243 209.6 464ZM64 193.6V89.6C64 82.8105 66.6971 76.299 71.4981 71.4981C76.299 66.6971 82.8105 64 89.6 64H193.6C197.843 64 201.913 62.3143 204.914 59.3137C207.914 56.3131 209.6 52.2435 209.6 48C209.6 43.7565 207.914 39.6869 204.914 36.6863C201.913 33.6857 197.843 32 193.6 32H89.6C74.3365 32.0422 59.7102 38.1243 48.9173 48.9173C38.1243 59.7102 32.0422 74.3365 32 89.6V193.6C32 197.843 33.6857 201.913 36.6863 204.914C39.6869 207.914 43.7565 209.6 48 209.6C52.2435 209.6 56.3131 207.914 59.3137 204.914C62.3143 201.913 64 197.843 64 193.6ZM480 193.6V89.6C479.958 74.3365 473.876 59.7102 463.083 48.9173C452.29 38.1243 437.663 32.0422 422.4 32H318.4C314.157 32 310.087 33.6857 307.086 36.6863C304.086 39.6869 302.4 43.7565 302.4 48C302.4 52.2435 304.086 56.3131 307.086 59.3137C310.087 62.3143 314.157 64 318.4 64H422.4C429.19 64 435.701 66.6971 440.502 71.4981C445.303 76.299 448 82.8105 448 89.6V193.6C448 197.843 449.686 201.913 452.686 204.914C455.687 207.914 459.757 209.6 464 209.6C468.243 209.6 472.313 207.914 475.314 204.914C478.314 201.913 480 197.843 480 193.6Z" fill="#D32B29"/>
</svg>
