<svg id="Layer_1" enable-background="new 0 0 512 512" height="512" viewBox="0 0 512 512" width="512" xmlns="http://www.w3.org/2000/svg"><g><path d="m473.563 227.063-66.063-66.063-144.75 144.75c-25 25-49.563 41-74.5 16-25-25-9-49.5 16-74.5l144.75-144.75-65.063-65.094c-14.188-14.188-2-37.906 19-37.906h170.625c20.938 0 37.938 16.969 37.938 37.906v170.688c0 20.937-23.687 33.187-37.937 18.969zm-410.063 220.437h320v-188.187l64 64v124.187c0 35.375-28.625 64-64 64h-320c-35.375 0-64-28.625-64-64v-320c0-35.344 28.625-64 64-64h124.188l64 64h-188.188z"/></g></svg>